<svg xmlns="http://www.w3.org/2000/svg" viewBox="0 0 100 100" width="100" height="100">
  <defs>
    <style>
      .desktop-case { fill: #374151; stroke: #1f2937; stroke-width: 1; }
      .desktop-panel { fill: #1f2937; }
      .desktop-button { fill: #3b82f6; }
      .desktop-led { fill: #10b981; }
      .desktop-drive { fill: #6b7280; }
    </style>
  </defs>
  
  <!-- Main desktop case -->
  <rect x="25" y="20" width="50" height="65" rx="4" class="desktop-case"/>
  
  <!-- Front panel -->
  <rect x="30" y="25" width="40" height="55" rx="2" class="desktop-panel"/>
  
  <!-- Power button -->
  <circle cx="50" cy="35" r="4" class="desktop-button"/>
  
  <!-- Power LED -->
  <circle cx="42" cy="35" r="1.5" class="desktop-led"/>
  
  <!-- DVD/CD drive -->
  <rect x="35" y="45" width="30" height="4" rx="1" class="desktop-drive"/>
  <circle cx="62" cy="47" r="0.8" fill="#9ca3af"/>
  
  <!-- USB ports -->
  <rect x="35" y="55" width="4" height="2" rx="0.5" class="desktop-drive"/>
  <rect x="42" y="55" width="4" height="2" rx="0.5" class="desktop-drive"/>
  
  <!-- Ventilation grilles -->
  <g stroke="#6b7280" stroke-width="0.5" fill="none">
    <line x1="35" y1="65" x2="65" y2="65"/>
    <line x1="35" y1="67" x2="65" y2="67"/>
    <line x1="35" y1="69" x2="65" y2="69"/>
    <line x1="35" y1="71" x2="65" y2="71"/>
  </g>
  
  <!-- Stand/legs -->
  <rect x="35" y="80" width="30" height="6" rx="3" fill="#6b7280"/>
  <rect x="30" y="83" width="40" height="3" rx="1.5" fill="#9ca3af"/>
</svg> 