<svg xmlns="http://www.w3.org/2000/svg" viewBox="0 0 400 400" width="400" height="400">
  <rect width="400" height="400" fill="#f8fafc"/>
  
  <!-- Main asset label -->
  <rect x="80" y="100" width="240" height="120" rx="8" fill="#ffffff" stroke="#e2e8f0" stroke-width="2"/>
  
  <!-- Header section -->
  <rect x="80" y="100" width="240" height="30" rx="8" fill="#3b82f6"/>
  <rect x="80" y="125" width="240" height="5" fill="#3b82f6"/>
  
  <!-- Company logo placeholder -->
  <circle cx="110" cy="115" r="10" fill="#ffffff" opacity="0.9"/>
  <text x="110" y="120" font-family="Arial, sans-serif" font-size="8" font-weight="bold" fill="#3b82f6" text-anchor="middle">CO</text>
  
  <!-- Title -->
  <text x="130" y="120" font-family="Arial, sans-serif" font-size="12" font-weight="bold" fill="#ffffff">ASSET TAG</text>
  
  <!-- Asset information -->
  <g fill="#1e293b" font-family="Arial, sans-serif">
    <text x="100" y="155" font-size="10" font-weight="bold">Asset ID:</text>
    <text x="100" y="175" font-size="14" font-weight="bold">CH-1234</text>
    
    <text x="200" y="155" font-size="10" font-weight="bold">Model:</text>
    <text x="200" y="175" font-size="12">OptiPlex 7090</text>
    
    <text x="100" y="200" font-size="10" font-weight="bold">Serial:</text>
    <text x="100" y="215" font-size="10" font-family="monospace">DT001SN123</text>
  </g>
  
  <!-- QR Code -->
  <rect x="250" y="150" width="60" height="60" rx="4" fill="#1e293b"/>
  <g fill="#ffffff">
    <rect x="255" y="155" width="6" height="6"/>
    <rect x="264" y="155" width="6" height="6"/>
    <rect x="273" y="155" width="6" height="6"/>
    <rect x="282" y="155" width="6" height="6"/>
    <rect x="291" y="155" width="6" height="6"/>
    <rect x="300" y="155" width="6" height="6"/>
    
    <rect x="255" y="164" width="6" height="6"/>
    <rect x="273" y="164" width="6" height="6"/>
    <rect x="291" y="164" width="6" height="6"/>
    
    <rect x="255" y="173" width="6" height="6"/>
    <rect x="264" y="173" width="6" height="6"/>
    <rect x="273" y="173" width="6" height="6"/>
    <rect x="282" y="173" width="6" height="6"/>
    <rect x="291" y="173" width="6" height="6"/>
    <rect x="300" y="173" width="6" height="6"/>
    
    <rect x="255" y="182" width="6" height="6"/>
    <rect x="264" y="182" width="6" height="6"/>
    <rect x="282" y="182" width="6" height="6"/>
    <rect x="300" y="182" width="6" height="6"/>
    
    <rect x="255" y="191" width="6" height="6"/>
    <rect x="273" y="191" width="6" height="6"/>
    <rect x="291" y="191" width="6" height="6"/>
    
    <rect x="255" y="200" width="6" height="6"/>
    <rect x="264" y="200" width="6" height="6"/>
    <rect x="273" y="200" width="6" height="6"/>
    <rect x="282" y="200" width="6" height="6"/>
    <rect x="291" y="200" width="6" height="6"/>
    <rect x="300" y="200" width="6" height="6"/>
  </g>
  
  <!-- Security sticker -->
  <ellipse cx="150" cy="260" rx="40" ry="20" fill="#ef4444" opacity="0.8"/>
  <text x="150" y="265" font-family="Arial, sans-serif" font-size="8" font-weight="bold" fill="#ffffff" text-anchor="middle">VOID IF</text>
  <text x="150" y="275" font-family="Arial, sans-serif" font-size="8" font-weight="bold" fill="#ffffff" text-anchor="middle">REMOVED</text>
  
  <!-- Warranty label -->
  <rect x="220" y="250" width="80" height="40" rx="4" fill="#fbbf24"/>
  <text x="260" y="265" font-family="Arial, sans-serif" font-size="8" font-weight="bold" fill="#1e293b" text-anchor="middle">WARRANTY</text>
  <text x="260" y="275" font-family="Arial, sans-serif" font-size="8" fill="#1e293b" text-anchor="middle">Valid Until</text>
  <text x="260" y="285" font-family="Arial, sans-serif" font-size="8" font-weight="bold" fill="#1e293b" text-anchor="middle">12/2025</text>
  
  <!-- Barcode label -->
  <rect x="80" y="320" width="120" height="60" rx="4" fill="#ffffff" stroke="#cbd5e1" stroke-width="1"/>
  <g fill="#1e293b">
    <rect x="90" y="330" width="2" height="30"/>
    <rect x="95" y="330" width="1" height="30"/>
    <rect x="98" y="330" width="3" height="30"/>
    <rect x="104" y="330" width="1" height="30"/>
    <rect x="107" y="330" width="2" height="30"/>
    <rect x="112" y="330" width="1" height="30"/>
    <rect x="116" y="330" width="2" height="30"/>
    <rect x="121" y="330" width="1" height="30"/>
    <rect x="125" y="330" width="3" height="30"/>
    <rect x="131" y="330" width="1" height="30"/>
    <rect x="135" y="330" width="2" height="30"/>
    <rect x="140" y="330" width="1" height="30"/>
    <rect x="144" y="330" width="2" height="30"/>
    <rect x="149" y="330" width="1" height="30"/>
    <rect x="153" y="330" width="3" height="30"/>
    <rect x="159" y="330" width="1" height="30"/>
    <rect x="163" y="330" width="2" height="30"/>
    <rect x="168" y="330" width="1" height="30"/>
    <rect x="172" y="330" width="2" height="30"/>
    <rect x="177" y="330" width="1" height="30"/>
    <rect x="181" y="330" width="3" height="30"/>
    <rect x="187" y="330" width="1" height="30"/>
  </g>
  <text x="140" y="375" font-family="monospace" font-size="10" fill="#1e293b" text-anchor="middle">123456789012</text>
  
  <!-- RFID tag -->
  <ellipse cx="280" cy="350" rx="30" ry="15" fill="#64748b"/>
  <rect x="265" y="342" width="30" height="4" rx="2" fill="#94a3b8"/>
  <rect x="265" y="350" width="30" height="4" rx="2" fill="#94a3b8"/>
  <rect x="265" y="358" width="30" height="4" rx="2" fill="#94a3b8"/>
  <text x="280" y="375" font-family="Arial, sans-serif" font-size="8" fill="#64748b" text-anchor="middle">RFID</text>
  
  <!-- Adhesive backing indication -->
  <g stroke="#e2e8f0" stroke-width="1" fill="none" opacity="0.5">
    <path d="M 320 100 L 340 100 L 340 220 L 320 220"/>
    <path d="M 320 250 L 340 250 L 340 290 L 320 290"/>
  </g>
</svg> 