<svg xmlns="http://www.w3.org/2000/svg" viewBox="0 0 100 100" width="100" height="100">
  <defs>
    <style>
      .laptop-base { fill: #374151; stroke: #1f2937; stroke-width: 1; }
      .laptop-screen { fill: #1f2937; stroke: #111827; stroke-width: 1; }
      .laptop-display { fill: #1e40af; }
      .laptop-keyboard { fill: #d1d5db; }
      .laptop-trackpad { fill: #9ca3af; }
    </style>
  </defs>
  
  <!-- Laptop base -->
  <ellipse cx="50" cy="70" rx="40" ry="8" class="laptop-base"/>
  
  <!-- Screen back -->
  <rect x="15" y="20" width="70" height="45" rx="3" class="laptop-screen"/>
  
  <!-- Screen display -->
  <rect x="20" y="25" width="60" height="35" rx="2" class="laptop-display"/>
  
  <!-- Keyboard area -->
  <rect x="20" y="60" width="60" height="15" rx="2" class="laptop-keyboard"/>
  
  <!-- Trackpad -->
  <rect x="42" y="63" width="16" height="9" rx="1" class="laptop-trackpad"/>
  
  <!-- Keyboard keys (simplified) -->
  <g fill="#9ca3af">
    <rect x="25" y="62" width="8" height="2" rx="0.5"/>
    <rect x="35" y="62" width="8" height="2" rx="0.5"/>
    <rect x="45" y="62" width="8" height="2" rx="0.5"/>
    <rect x="55" y="62" width="8" height="2" rx="0.5"/>
    <rect x="65" y="62" width="8" height="2" rx="0.5"/>
    
    <rect x="25" y="66" width="8" height="2" rx="0.5"/>
    <rect x="35" y="66" width="8" height="2" rx="0.5"/>
    <rect x="55" y="66" width="8" height="2" rx="0.5"/>
    <rect x="65" y="66" width="8" height="2" rx="0.5"/>
    
    <rect x="25" y="70" width="12" height="2" rx="0.5"/>
    <rect x="61" y="70" width="12" height="2" rx="0.5"/>
  </g>
  
  <!-- Apple/Windows logo placeholder -->
  <circle cx="50" cy="42" r="3" fill="#6b7280" opacity="0.5"/>
</svg> 