<svg xmlns="http://www.w3.org/2000/svg" viewBox="0 0 400 400" width="400" height="400">
  <rect width="400" height="400" fill="#f8fafc"/>
  
  <!-- Phone body -->
  <rect x="140" y="50" width="120" height="300" rx="25" fill="#1e293b" stroke="#334155" stroke-width="2"/>
  
  <!-- Screen -->
  <rect x="150" y="70" width="100" height="260" rx="15" fill="#0f172a"/>
  
  <!-- Notch -->
  <rect x="180" y="50" width="40" height="8" rx="4" fill="#374151"/>
  
  <!-- Screen content -->
  <circle cx="200" cy="130" r="25" fill="#3b82f6" opacity="0.4"/>
  <rect x="170" y="170" width="60" height="6" rx="3" fill="#94a3b8"/>
  <rect x="170" y="185" width="40" height="5" rx="2" fill="#cbd5e1"/>
  <rect x="170" y="200" width="50" height="5" rx="2" fill="#cbd5e1"/>
  
  <!-- Apps grid -->
  <g fill="#64748b" opacity="0.6">
    <rect x="165" y="230" width="15" height="15" rx="3"/>
    <rect x="185" y="230" width="15" height="15" rx="3"/>
    <rect x="205" y="230" width="15" height="15" rx="3"/>
    <rect x="225" y="230" width="15" height="15" rx="3"/>
    
    <rect x="165" y="250" width="15" height="15" rx="3"/>
    <rect x="185" y="250" width="15" height="15" rx="3"/>
    <rect x="205" y="250" width="15" height="15" rx="3"/>
    <rect x="225" y="250" width="15" height="15" rx="3"/>
    
    <rect x="165" y="270" width="15" height="15" rx="3"/>
    <rect x="185" y="270" width="15" height="15" rx="3"/>
    <rect x="205" y="270" width="15" height="15" rx="3"/>
    <rect x="225" y="270" width="15" height="15" rx="3"/>
  </g>
  
  <!-- Home indicator -->
  <rect x="185" y="310" width="30" height="3" rx="1.5" fill="#6b7280"/>
  
  <!-- Volume buttons -->
  <rect x="135" y="120" width="3" height="15" rx="1.5" fill="#374151"/>
  <rect x="135" y="140" width="3" height="15" rx="1.5" fill="#374151"/>
  
  <!-- Power button -->
  <rect x="262" y="130" width="3" height="20" rx="1.5" fill="#374151"/>
</svg> 